<svg width="101" height="14" viewBox="0 0 101 14" fill="none" xmlns="http://www.w3.org/2000/svg">
<path d="M4.18164 13.1758C3.53125 13.1758 2.94531 13.0146 2.42383 12.6924C1.89648 12.3701 1.47168 11.9365 1.14941 11.3916C0.833008 10.8467 0.674805 10.2373 0.674805 9.56348V3.85938C0.674805 3.20312 0.835938 2.60547 1.1582 2.06641C1.47461 1.52148 1.89941 1.08789 2.43262 0.765625C2.96582 0.4375 3.54883 0.273438 4.18164 0.273438C4.84375 0.273438 5.44141 0.431641 5.97461 0.748047C6.50781 1.07031 6.92969 1.50098 7.24023 2.04004C7.55664 2.5791 7.71484 3.18555 7.71484 3.85938V4.68555C7.71484 4.73242 7.68555 4.75586 7.62695 4.75586H5.60547C5.55859 4.75586 5.53516 4.73242 5.53516 4.68555V4C5.53516 3.54297 5.40625 3.16504 5.14844 2.86621C4.89062 2.56738 4.56836 2.41797 4.18164 2.41797C3.83594 2.41797 3.52832 2.56152 3.25879 2.84863C2.98926 3.13574 2.85449 3.47266 2.85449 3.85938V9.56348C2.85449 9.95605 2.98633 10.2959 3.25 10.583C3.51367 10.8643 3.82422 11.0049 4.18164 11.0049C4.56836 11.0049 4.89062 10.8672 5.14844 10.5918C5.40625 10.3105 5.53516 9.96777 5.53516 9.56348V8.67578H4.27832C4.21387 8.67578 4.18164 8.64648 4.18164 8.58789V6.5752C4.18164 6.5166 4.21387 6.4873 4.27832 6.4873H7.64453C7.69141 6.4873 7.71484 6.5166 7.71484 6.5752V9.56348C7.71484 10.2373 7.55664 10.8467 7.24023 11.3916C6.91797 11.9365 6.49316 12.3701 5.96582 12.6924C5.43848 13.0146 4.84375 13.1758 4.18164 13.1758ZM12.3203 13.1758C11.6816 13.1758 11.0928 13.0117 10.5537 12.6836C10.0205 12.3555 9.58984 11.9189 9.26172 11.374C8.93945 10.8232 8.77832 10.2197 8.77832 9.56348L8.7959 3.85938C8.7959 3.19141 8.95703 2.59082 9.2793 2.05762C9.5957 1.51855 10.0234 1.08789 10.5625 0.765625C11.1016 0.4375 11.6875 0.273438 12.3203 0.273438C12.9766 0.273438 13.5654 0.43457 14.0869 0.756836C14.6143 1.0791 15.0361 1.5127 15.3525 2.05762C15.6748 2.59668 15.8359 3.19727 15.8359 3.85938L15.8535 9.56348C15.8535 10.2197 15.6953 10.8203 15.3789 11.3652C15.0566 11.916 14.6289 12.3555 14.0957 12.6836C13.5625 13.0117 12.9707 13.1758 12.3203 13.1758ZM12.3203 11.0049C12.6836 11.0049 13 10.8584 13.2695 10.5654C13.5391 10.2666 13.6738 9.93262 13.6738 9.56348L13.6562 3.85938C13.6562 3.46094 13.5303 3.12402 13.2783 2.84863C13.0264 2.57324 12.707 2.43555 12.3203 2.43555C11.9512 2.43555 11.6348 2.57031 11.3711 2.83984C11.1074 3.10938 10.9756 3.44922 10.9756 3.85938V9.56348C10.9756 9.95605 11.1074 10.2959 11.3711 10.583C11.6348 10.8643 11.9512 11.0049 12.3203 11.0049ZM23.1045 13H17.2861C17.2393 13 17.2158 12.9707 17.2158 12.9121L17.2334 0.563477C17.2334 0.504883 17.2627 0.475586 17.3213 0.475586H19.3252C19.3838 0.475586 19.4131 0.504883 19.4131 0.563477L19.3955 10.7852H23.1045C23.1631 10.7852 23.1924 10.8145 23.1924 10.873V12.9121C23.1924 12.9707 23.1631 13 23.1045 13ZM26.4795 13H24.458C24.3994 13 24.3701 12.9707 24.3701 12.9121L24.4053 0.545898C24.4053 0.499023 24.4287 0.475586 24.4756 0.475586H30.2412C30.2998 0.475586 30.3291 0.499023 30.3291 0.545898V2.57617C30.3291 2.62305 30.3057 2.64648 30.2588 2.64648H26.5674V5.44141H30.2588C30.3057 5.44141 30.3291 5.4707 30.3291 5.5293L30.3467 7.56836C30.3467 7.61523 30.3174 7.63867 30.2588 7.63867H26.5674V12.9121C26.5674 12.9707 26.5381 13 26.4795 13ZM48.083 13H46.0615C46.0029 13 45.9736 12.9707 45.9736 12.9121L46.0088 0.545898C46.0088 0.499023 46.0322 0.475586 46.0791 0.475586H49.542C50.6436 0.475586 51.5137 0.8125 52.1523 1.48633C52.7969 2.1543 53.1191 3.06543 53.1191 4.21973C53.1191 5.06348 52.9521 5.79883 52.6182 6.42578C52.2783 7.04688 51.8389 7.52734 51.2998 7.86719C50.7607 8.20703 50.1748 8.37695 49.542 8.37695H48.1709V12.9121C48.1709 12.9707 48.1416 13 48.083 13ZM49.542 2.61133L48.1709 2.62891V6.19727H49.542C49.9229 6.19727 50.2539 6.01562 50.5352 5.65234C50.8164 5.2832 50.957 4.80566 50.957 4.21973C50.957 3.75098 50.8311 3.36719 50.5791 3.06836C50.3271 2.76367 49.9814 2.61133 49.542 2.61133ZM56.4502 13H54.4111C54.3643 13 54.3408 12.9707 54.3408 12.9121L54.376 0.545898C54.376 0.499023 54.3994 0.475586 54.4463 0.475586H58.085C58.7354 0.475586 59.333 0.633789 59.8779 0.950195C60.4229 1.2666 60.8564 1.69141 61.1787 2.22461C61.5068 2.75781 61.6709 3.36133 61.6709 4.03516C61.6709 4.47461 61.6035 4.87305 61.4688 5.23047C61.334 5.58789 61.1758 5.88965 60.9941 6.13574C60.8184 6.38184 60.6572 6.56348 60.5107 6.68066C61.1611 7.40137 61.4863 8.24805 61.4863 9.2207L61.5039 12.9121C61.5039 12.9707 61.4746 13 61.416 13H59.377C59.3301 13 59.3066 12.9824 59.3066 12.9473V9.2207C59.3066 8.78711 59.1543 8.41211 58.8496 8.0957C58.5449 7.7793 58.1699 7.62109 57.7246 7.62109H56.5381L56.5205 12.9121C56.5205 12.9707 56.4971 13 56.4502 13ZM58.085 2.62891H56.5381V5.45898H58.085C58.4541 5.45898 58.7822 5.32129 59.0693 5.0459C59.3623 4.77051 59.5088 4.43359 59.5088 4.03516C59.5088 3.6543 59.3682 3.32617 59.0869 3.05078C58.8057 2.76953 58.4717 2.62891 58.085 2.62891ZM68.9131 13H63.0947C63.0479 13 63.0244 12.9707 63.0244 12.9121L63.042 0.545898C63.042 0.499023 63.0654 0.475586 63.1123 0.475586H68.8955C68.9424 0.475586 68.9658 0.504883 68.9658 0.563477V2.57617C68.9658 2.62305 68.9424 2.64648 68.8955 2.64648H65.2041V5.45898H68.8955C68.9424 5.45898 68.9658 5.48242 68.9658 5.5293L68.9834 7.56836C68.9834 7.61523 68.96 7.63867 68.9131 7.63867H65.2041V10.7852H68.9131C68.96 10.7852 68.9834 10.8145 68.9834 10.873V12.9297C68.9834 12.9766 68.96 13 68.9131 13ZM73.6416 13.1758C73.0029 13.1758 72.4141 13.0117 71.875 12.6836C71.3418 12.3555 70.9141 11.9189 70.5918 11.374C70.2754 10.8232 70.1172 10.2197 70.1172 9.56348V8.7373C70.1172 8.67285 70.1465 8.64062 70.2051 8.64062H72.2266C72.2734 8.64062 72.2969 8.67285 72.2969 8.7373V9.56348C72.2969 9.95605 72.4287 10.2959 72.6924 10.583C72.9561 10.8643 73.2725 11.0049 73.6416 11.0049C74.0166 11.0049 74.3359 10.8613 74.5996 10.5742C74.8633 10.2812 74.9951 9.94434 74.9951 9.56348C74.9951 9.12402 74.708 8.74023 74.1338 8.41211C74.04 8.35352 73.917 8.2832 73.7646 8.20117C73.6182 8.11328 73.4424 8.01367 73.2373 7.90234C73.0322 7.79102 72.833 7.68262 72.6396 7.57715C72.4463 7.46582 72.2588 7.36035 72.0771 7.26074C71.4209 6.87402 70.9316 6.39062 70.6094 5.81055C70.293 5.22461 70.1348 4.56836 70.1348 3.8418C70.1348 3.17383 70.2988 2.57031 70.627 2.03125C70.9551 1.49805 71.3828 1.07617 71.9102 0.765625C72.4434 0.449219 73.0205 0.291016 73.6416 0.291016C74.2803 0.291016 74.8662 0.449219 75.3994 0.765625C75.9326 1.08789 76.3574 1.51562 76.6738 2.04883C76.9961 2.58203 77.1572 3.17969 77.1572 3.8418V5.31836C77.1572 5.36523 77.1338 5.38867 77.0869 5.38867H75.0654C75.0186 5.38867 74.9951 5.36523 74.9951 5.31836L74.9775 3.8418C74.9775 3.41992 74.8457 3.07715 74.582 2.81348C74.3184 2.5498 74.0049 2.41797 73.6416 2.41797C73.2725 2.41797 72.9561 2.55859 72.6924 2.83984C72.4287 3.12109 72.2969 3.45508 72.2969 3.8418C72.2969 4.23438 72.3789 4.5625 72.543 4.82617C72.7129 5.08984 73.0205 5.3418 73.4658 5.58203C73.5127 5.60547 73.6211 5.66406 73.791 5.75781C73.9609 5.85156 74.1484 5.95703 74.3535 6.07422C74.5645 6.18555 74.7549 6.28809 74.9248 6.38184C75.0947 6.46973 75.1973 6.52246 75.2324 6.54004C75.8301 6.87402 76.3018 7.28418 76.6475 7.77051C76.999 8.25684 77.1748 8.85449 77.1748 9.56348C77.1748 10.249 77.0166 10.8643 76.7002 11.4092C76.3779 11.9541 75.9502 12.3848 75.417 12.7012C74.8838 13.0176 74.292 13.1758 73.6416 13.1758ZM84.3115 13H78.4932C78.4463 13 78.4229 12.9707 78.4229 12.9121L78.4404 0.545898C78.4404 0.499023 78.4639 0.475586 78.5107 0.475586H84.2939C84.3408 0.475586 84.3643 0.504883 84.3643 0.563477V2.57617C84.3643 2.62305 84.3408 2.64648 84.2939 2.64648H80.6025V5.45898H84.2939C84.3408 5.45898 84.3643 5.48242 84.3643 5.5293L84.3818 7.56836C84.3818 7.61523 84.3584 7.63867 84.3115 7.63867H80.6025V10.7852H84.3115C84.3584 10.7852 84.3818 10.8145 84.3818 10.873V12.9297C84.3818 12.9766 84.3584 13 84.3115 13ZM87.9414 13H86.1396C86.0459 13 85.999 12.959 85.999 12.877L85.9814 0.616211C85.9814 0.522461 86.0283 0.475586 86.1221 0.475586H87.748L90.7891 7.56836L90.7012 0.616211C90.7012 0.522461 90.7539 0.475586 90.8594 0.475586H92.6436C92.7139 0.475586 92.749 0.522461 92.749 0.616211L92.7666 12.8945C92.7666 12.9648 92.7373 13 92.6787 13H91.0967L87.9766 6.37305L88.1084 12.8594C88.1084 12.9531 88.0527 13 87.9414 13ZM98.1719 13H96.1416C96.0889 13 96.0625 12.9707 96.0625 12.9121V2.64648H93.7246C93.666 2.64648 93.6367 2.61719 93.6367 2.55859L93.6543 0.545898C93.6543 0.499023 93.6777 0.475586 93.7246 0.475586H100.562C100.627 0.475586 100.659 0.499023 100.659 0.545898V2.55859C100.659 2.61719 100.636 2.64648 100.589 2.64648H98.2246L98.2422 12.9121C98.2422 12.9707 98.2188 13 98.1719 13Z" fill="white"/>
</svg>
